<svg version="1" xmlns="http://www.w3.org/2000/svg" width="85.333" height="85.333" viewBox="0 0 64.000000 64.000000"><path d="M16 7.2c-1.1 1.2-2 2.7-2.1 3.2 0 .6-.2 1.8-.4 2.7-.4 2.2 2.7 9 4.9 10.8 2.7 2.3 7.6 1.8 9.7-1 6.4-8.3-5-23.3-12.1-15.7zM39.1 6.6C34.3 10 32.5 19 35.8 23.1c4.1 4.9 12 1.5 13.9-5.9 2.2-8.9-4-15.2-10.6-10.6zM3.1 24.6C.5 27.9.5 29.3 3 34.5c3.2 6.6 9.3 8.5 12.8 4C20.2 33 14 22 6.5 22c-.7 0-2.3 1.2-3.4 2.6zM53 23.3c-3.4 1.7-6.8 8.1-6.2 11.5 1.9 10.6 14.3 6.4 15.8-5.3.7-5.4-4.5-8.8-9.6-6.2zM27.4 34.1c-4.2 1.2-12 8.3-14.5 13.1-1.1 2.2-1.9 5.3-1.7 7 .5 4.7 4.1 5.6 13.4 3.2 7-1.7 7.5-1.7 14.6.1 8.1 2 13 1.3 13.6-1.9 1.3-6.3-5.9-16.5-14.3-20.5-4.8-2.3-6.3-2.4-11.1-1z"/></svg>